<svg width="4248" height="1461.9999999999998" xmlns="http://www.w3.org/2000/svg" xml:space="preserve" version="1.1">

 <g>
  <title>Layer 1</title>
  <g id="svg_1">
   <path id="svg_2" d="m276.28001,1211.51005l-26.9,-128.96l161.38,0c11.72,0 17.59,-4.77 17.59,-14.32l0,-126.1c0,-9.55 -2.07,-15.28 -6.21,-17.19c-4.14,-1.91 -11.38,-2.86 -21.72,-2.86l-77.58,0c-11.04,0 -21.56,-0.79 -31.55,-2.39c-10.01,-1.58 -18.98,-5.25 -26.9,-10.99c-7.94,-5.73 -14.14,-13.69 -18.62,-23.88c-4.49,-10.18 -6.72,-23.89 -6.72,-41.08l0,-234.99c0,-27.37 8.1,-49.2 24.31,-65.44c16.2,-16.24 41.9,-24.36 77.07,-24.36l206.88,0l25.86,128.96l-169.65,0c-12.41,0 -18.62,5.11 -18.62,15.29l0,126.09c0,7.02 1.89,11.79 5.69,14.33c3.78,2.55 9.47,3.82 17.07,3.82l94.14,0c24.13,0 42.57,5.26 55.34,15.76c12.75,10.51 19.14,28.83 19.14,54.93l0,228.31c0,38.21 -8.45,65.29 -25.34,81.2c-16.91,15.92 -46.73,23.88 -89.48,23.88l-185.18,0l0,-0.01z"/>
   <path id="svg_3" d="m923.84001,518.94005l37.24,128.96l-100.34,0l0,563.61l-153.1,0l0,-563.61l-100.34,0l39.31,-128.96l277.23,0z"/>
   <path id="svg_4" d="m1002.46001,518.94005l291.72,0l25.86,128.96l-163.44,0l0,164.31l124.13,0l0,119.41l-124.13,0l0,150.93l157.23,0l-25.86,128.96l-285.51,0l0,-692.57z"/>
   <path id="svg_5" d="m1993.47001,816.03005l76.55,-297.09l155.17,0l-90,319.06l88.97,373.51l-164.48,0l-58.96,-285.63l-30,0l0,285.63l-153.1,0l0,-692.57l153.1,0l0,297.09l22.75,0z"/>
   <path id="svg_6" d="m2691.71001,518.94005l37.24,128.96l-100.34,0l0,563.61l-153.1,0l0,-563.61l-100.34,0l39.31,-128.96l277.23,0z"/>
   <path id="svg_7" d="m3159.28001,1113.11005c0,13.38 -1.73,25.95 -5.17,37.73c-3.46,11.8 -9.31,22.14 -17.59,31.05c-8.28,8.93 -19.31,16.1 -33.1,21.5c-13.8,5.42 -31.03,8.12 -51.72,8.12l-173.79,0c-20.69,0 -37.93,-2.7 -51.72,-8.12c-13.8,-5.4 -24.83,-12.57 -33.1,-21.5c-8.28,-8.91 -14.14,-19.25 -17.59,-31.05c-3.46,-11.78 -5.17,-24.36 -5.17,-37.73l0,-504.38c0,-27.37 8.1,-49.2 24.31,-65.44c16.2,-16.24 41.89,-24.36 77.06,-24.36l186.21,0c35.17,0 60.86,8.12 77.07,24.36c16.2,16.24 24.31,38.06 24.31,65.44l0,504.38l-0.01,0zm-224.47,-472.85c-8.98,0 -13.45,4.46 -13.45,13.37l0,422.23c0,5.11 0.85,8.76 2.58,10.99c1.71,2.24 5.69,3.34 11.9,3.34l56.89,0c6.21,0 10.16,-1.11 11.89,-3.34c1.71,-2.23 2.59,-5.88 2.59,-10.99l0,-422.23c0,-8.9 -4.49,-13.37 -13.45,-13.37l-58.95,0z"/>
   <path id="svg_8" d="m3679.60001,518.94005l153.1,0l-117.93,692.57l-136.55,0l-62.07,-361.09l-61.03,361.09l-136.55,0l-117.93,-692.57l153.1,0l47.58,403.13l61.03,-403.13l108.62,0l60,403.13l48.63,-403.13z"/>
   <path id="svg_9" d="m3874.08001,518.94005l142.76,0l76.55,277.99l0,-277.99l154.13,0l0,692.57l-154.13,0l-80.69,-289.45l0,289.45l-138.62,0l0,-692.57z"/>
   <path id="svg_10" d="m3088.24001,80.80005c-21.88,44.57 -36.52,72.14 -72.49,109.61c-63.22,65.86 -120.7,84.47 -242.6,97.95c-256.99,28.42 -916.38,0.84 -980.53,0.84c-87.93,0 -136.39,78.58 -146.99,154.62c-8.09,57.98 -33.88,238.85 -33.88,238.85l-15.07,0l-33.43,0l-54.77,0c0,0 -25.79,-180.87 -33.88,-238.85c-10.6,-76.04 -59.06,-154.62 -146.99,-154.62c-64.15,0 -723.54,27.58 -980.53,-0.84c-121.9,-13.48 -179.37,-32.09 -242.6,-97.95c-35.97,-37.47 -50.61,-65.04 -72.49,-109.61c-8.81,-17.93 -31.99,-80.8 -31.99,-80.8c7.96,33.11 13.66,61.2 22.6,94.16c41.48,152.81 137.76,271.09 350.75,309.34c69.78,12.53 142.78,16.67 214.3,20.62c227.07,12.55 411.66,1.19 617.51,1.7c24.64,0.06 51.01,-0.89 74,4.58c14.09,3.35 25.25,8.86 33.71,27.45c26.98,59.27 166.65,753.67 166.65,753.67l79.53,0l80.81,0l0.86,0c0,0 3.49,-17.36 9.47,-46.77c0.07,-0.3 0.13,-0.57 0.19,-0.87c0,-0.01 -0.01,-0.02 -0.01,-0.03c32.05,-157.77 134.32,-656.17 157,-705.99c8.46,-18.59 19.62,-24.09 33.71,-27.45c22.98,-5.47 49.35,-4.52 74,-4.58c205.84,-0.52 390.43,10.84 617.51,-1.7c71.53,-3.95 144.53,-8.09 214.3,-20.62c212.99,-38.26 309.28,-156.53 350.75,-309.34c8.94,-32.95 14.64,-61.05 22.6,-94.16c-0.01,-0.01 -23.2,62.85 -32,80.79zm-1563.21,697.64l37.53,0l27.81,0l4.83,0l-6.45,40.46c0.05,-2.48 0.09,-4.96 0.17,-7.43l-28.8,175.24l-0.86,-5.22c-0.03,3.57 -0.02,7.15 -0.05,10.72l-0.04,0.27l-34.14,-214.04z"/>
   <g id="svg_11">
    <path id="svg_12" d="m253.28001,1317.22005l24.22,0l0,57.94l25.98,0l0,-57.94l24.22,0l0,142.31l-24.22,0l0,-64.04l-25.98,0l0,64.04l-24.22,0l0,-142.31z"/>
    <path id="svg_13" d="m438.21001,1317.22005l32.8,0l25.1,142.31l-24.22,0l-4.4,-28.26l0,0.41l-27.52,0l-4.4,27.85l-22.46,0l25.1,-142.31zm26.42,95.14l-10.79,-70.34l-0.44,0l-10.57,70.34l21.8,0z"/>
    <path id="svg_14" d="m568.98001,1317.22005l24.44,0l15.85,110.39l0.44,0l15.85,-110.39l22.24,0l-23.34,142.31l-32.15,0l-23.33,-142.31z"/>
    <path id="svg_15" d="m733.21001,1317.22005l66.05,0l0,20.33l-41.83,0l0,37.61l33.24,0l0,20.33l-33.24,0l0,43.71l41.83,0l0,20.33l-66.05,0l0,-142.31z"/>
    <path id="svg_16" d="m1014.56001,1317.22005l32.8,0l25.1,142.31l-24.22,0l-4.4,-28.26l0,0.41l-27.52,0l-4.4,27.85l-22.46,0l25.1,-142.31zm26.42,95.14l-10.79,-70.34l-0.44,0l-10.57,70.34l21.8,0z"/>
    <path id="svg_17" d="m1271.70001,1452.31005c-6.02,-6.17 -9.03,-15.01 -9.03,-26.53l0,-8.13l22.9,0l0,9.76c0,9.22 4.18,13.83 12.55,13.83c4.11,0 7.23,-1.12 9.36,-3.35c2.13,-2.24 3.19,-5.86 3.19,-10.88c0,-5.96 -1.47,-11.21 -4.4,-15.76c-2.94,-4.54 -8.37,-9.99 -16.29,-16.37c-9.98,-8.13 -16.95,-15.48 -20.92,-22.06c-3.96,-6.57 -5.94,-13.99 -5.94,-22.26c0,-11.25 3.08,-19.96 9.25,-26.12c6.16,-6.17 15.12,-9.25 26.86,-9.25c11.59,0 20.36,3.08 26.31,9.25c5.94,6.17 8.92,15.01 8.92,26.53l0,5.9l-22.9,0l0,-7.32c0,-4.88 -1.03,-8.44 -3.08,-10.67c-2.06,-2.24 -5.06,-3.35 -9.03,-3.35c-8.07,0 -12.11,4.54 -12.11,13.62c0,5.15 1.5,9.96 4.51,14.43c3.01,4.47 8.48,9.89 16.4,16.26c10.13,8.13 17.1,15.52 20.92,22.16c3.81,6.64 5.72,14.43 5.72,23.38c0,11.66 -3.12,20.6 -9.36,26.84c-6.24,6.24 -15.3,9.35 -27.19,9.35c-11.75,-0.01 -20.63,-3.09 -26.64,-9.26z"/>
    <path id="svg_18" d="m1441.44001,1337.55005l-25.32,0l0,-20.33l74.85,0l0,20.33l-25.32,0l0,121.98l-24.22,0l0,-121.98l0.01,0z"/>
    <path id="svg_19" d="m1576.39001,1317.22005l66.05,0l0,20.33l-41.83,0l0,37.61l33.24,0l0,20.33l-33.24,0l0,43.71l41.83,0l0,20.33l-66.05,0l0,-142.31z"/>
    <path id="svg_20" d="m1748.77001,1317.22005l32.8,0l25.1,142.31l-24.22,0l-4.4,-28.26l0,0.41l-27.52,0l-4.4,27.85l-22.46,0l25.1,-142.31zm26.42,95.14l-10.79,-70.34l-0.44,0l-10.57,70.34l21.8,0z"/>
    <path id="svg_21" d="m1892.09001,1317.22005l24.22,0l0,59.97l30.82,-59.97l24.22,0l-28.84,52.25l29.28,90.06l-25.32,0l-20.47,-63.43l-9.69,18.09l0,45.34l-24.22,0l0,-142.31z"/>
    <path id="svg_22" d="m2165.95001,1437.98005l23.34,0l0,21.55l-23.34,0l0,-21.55z"/>
    <path id="svg_23" d="m2281.09001,1437.98005l23.34,0l0,21.55l-23.34,0l0,-21.55z"/>
    <path id="svg_24" d="m2505.20001,1317.22005l24.22,0l0,57.94l25.98,0l0,-57.94l24.22,0l0,142.31l-24.22,0l0,-64.04l-25.98,0l0,64.04l-24.22,0l0,-142.31z"/>
    <path id="svg_25" d="m2690.13001,1317.22005l32.8,0l25.1,142.31l-24.22,0l-4.4,-28.26l0,0.41l-27.52,0l-4.4,27.85l-22.46,0l25.1,-142.31zm26.42,95.14l-10.79,-70.34l-0.44,0l-10.57,70.34l21.8,0z"/>
    <path id="svg_26" d="m2820.90001,1317.22005l24.44,0l15.85,110.39l0.44,0l15.85,-110.39l22.24,0l-23.34,142.31l-32.14,0l-23.34,-142.31z"/>
    <path id="svg_27" d="m2985.14001,1317.22005l66.05,0l0,20.33l-41.83,0l0,37.61l33.24,0l0,20.33l-33.24,0l0,43.71l41.83,0l0,20.33l-66.05,0l0,-142.31z"/>
    <path id="svg_28" d="m3266.49001,1317.22005l32.8,0l25.1,142.31l-24.22,0l-4.4,-28.26l0,0.41l-27.52,0l-4.4,27.85l-22.46,0l25.1,-142.31zm26.42,95.14l-10.79,-70.34l-0.44,0l-10.57,70.34l21.8,0z"/>
    <path id="svg_29" d="m3518.78001,1317.22005l36.55,0c12.47,0 21.58,2.68 27.3,8.03c5.72,5.36 8.59,13.59 8.59,24.7l0,5.69c0,7.32 -1.29,13.28 -3.85,17.89c-2.57,4.61 -6.49,7.93 -11.78,9.96l0,0.41c12.03,3.8 18.05,13.69 18.05,29.68l0,12.2c0,10.98 -3.12,19.35 -9.36,25.11c-6.24,5.76 -15.38,8.64 -27.41,8.64l-38.09,0l0,-142.31zm33.68,57.94c4.84,0 8.48,-1.15 10.9,-3.46c2.42,-2.3 3.63,-6.17 3.63,-11.59l0,-7.93c0,-5.15 -0.99,-8.88 -2.97,-11.18c-1.98,-2.3 -5.1,-3.46 -9.36,-3.46l-11.67,0l0,37.61l9.47,0l0,0.01zm4.41,64.04c4.25,0 7.41,-1.05 9.47,-3.15c2.05,-2.1 3.08,-5.72 3.08,-10.88l0,-12.4c0,-6.5 -1.21,-11.01 -3.63,-13.52c-2.42,-2.51 -6.42,-3.76 -12,-3.76l-10.79,0l0,43.71l13.87,0z"/>
    <path id="svg_30" d="m3681.47001,1317.22005l35.88,0c12.47,0 21.58,2.68 27.3,8.03c5.72,5.36 8.59,13.59 8.59,24.7l0,8.74c0,14.77 -5.28,24.13 -15.85,28.06l0,0.41c5.87,1.63 10.02,4.95 12.44,9.96c2.42,5.02 3.63,11.72 3.63,20.13l0,25.01c0,4.07 0.14,7.35 0.44,9.86c0.29,2.51 1.03,4.98 2.2,7.42l-24.66,0c-0.88,-2.3 -1.47,-4.47 -1.76,-6.51c-0.3,-2.03 -0.44,-5.69 -0.44,-10.98l0,-26.02c0,-6.5 -1.14,-11.04 -3.41,-13.62c-2.28,-2.57 -6.2,-3.86 -11.78,-3.86l-8.37,0l0,60.99l-24.22,0l0,-142.32l0.01,0zm33.03,60.99c4.84,0 8.48,-1.15 10.9,-3.46c2.42,-2.3 3.63,-6.17 3.63,-11.59l0,-10.98c0,-5.15 -0.99,-8.88 -2.97,-11.18c-1.98,-2.3 -5.1,-3.46 -9.36,-3.46l-11.01,0l0,40.66l8.81,0l0,0.01z"/>
    <path id="svg_31" d="m3843.95001,1317.22005l66.05,0l0,20.33l-41.83,0l0,37.61l33.24,0l0,20.33l-33.24,0l0,43.71l41.83,0l0,20.33l-66.05,0l0,-142.31z"/>
    <path id="svg_32" d="m4016.33001,1317.22005l32.8,0l25.1,142.31l-24.22,0l-4.4,-28.26l0,0.41l-27.52,0l-4.4,27.85l-22.46,0l25.1,-142.31zm26.41,95.14l-10.79,-70.34l-0.44,0l-10.57,70.34l21.8,0z"/>
    <path id="svg_33" d="m4159.64001,1317.22005l24.22,0l0,59.97l30.82,-59.97l24.22,0l-28.84,52.25l29.28,90.06l-25.32,0l-20.47,-63.43l-9.69,18.09l0,45.34l-24.22,0l0,-142.31z"/>
   </g>
  </g>
 </g>
</svg>